<svg width="36" height="24" viewBox="0 0 36 24" fill="none" xmlns="http://www.w3.org/2000/svg">
<path fill-rule="evenodd" clip-rule="evenodd" d="M32.25 0C33.9069 0 35.25 1.34315 35.25 3V5.25C35.25 5.45711 35.0821 5.625 34.875 5.625H1.125C0.917893 5.625 0.75 5.45711 0.75 5.25V3C0.75 1.34315 2.09315 0 3.75 0H32.25ZM0.75 21C0.75 22.6569 2.09315 24 3.75 24H32.25C33.9069 24 35.25 22.6569 35.25 21V8.25C35.25 8.04289 35.0821 7.875 34.875 7.875H1.125C0.917893 7.875 0.75 8.04289 0.75 8.25V21ZM25.5 17.625H30C30.6213 17.625 31.125 18.1287 31.125 18.75C31.125 19.3713 30.6213 19.875 30 19.875H25.5C24.8787 19.875 24.375 19.3713 24.375 18.75C24.375 18.1287 24.8787 17.625 25.5 17.625ZM18.75 11.625H6.75C6.12868 11.625 5.625 12.1287 5.625 12.75C5.625 13.3713 6.12868 13.875 6.75 13.875H18.75C19.3713 13.875 19.875 13.3713 19.875 12.75C19.875 12.1287 19.3713 11.625 18.75 11.625ZM6.75 17.625H11.25C11.8713 17.625 12.375 18.1287 12.375 18.75C12.375 19.3713 11.8713 19.875 11.25 19.875H6.75C6.12868 19.875 5.625 19.3713 5.625 18.75C5.625 18.1287 6.12868 17.625 6.75 17.625Z" fill="#8D89A3"/>
</svg>
