<svg width="172" height="28" viewBox="0 0 172 28" fill="none" xmlns="http://www.w3.org/2000/svg">
<g clip-path="url(#clip0_1_247)">
<path fill-rule="evenodd" clip-rule="evenodd" d="M72.6582 26C82.1389 26 87.5422 21.2265 87.5422 14C87.5422 6.77348 82.1389 2 72.6582 2C63.1776 2 57.8074 6.77348 57.8074 14C57.8074 21.2265 63.1776 26 72.6582 26ZM12.3315 25.6022C21.3149 25.6022 26.7182 21.2597 26.7182 14C26.7182 6.74033 21.3149 2.39779 12.3315 2.39779H0V25.6022H12.3315ZM11.8011 21.3591H5.17127V6.64088H11.8011C18.2652 6.64088 21.547 9.52486 21.547 14C21.547 18.4751 18.2652 21.3591 11.8011 21.3591ZM55.8706 19.337C55.8706 23.2155 52.5888 25.6022 46.1579 25.6022H30.3457V2.39779H46.191C51.5943 2.39779 54.9424 4.88398 54.9424 8.49724C54.9424 11.6464 52.2905 13.2707 48.8098 13.7348C53.3844 14.1657 55.8706 15.9558 55.8706 19.337ZM45.9258 11.9448H35.517V6.40884H45.9258C48.2131 6.40884 49.7711 7.37017 49.7711 9.16022C49.7711 10.9171 48.18 11.9448 45.9258 11.9448ZM35.517 21.5912H45.6606C48.9424 21.5912 50.6993 20.8287 50.6993 18.674C50.6993 16.4862 48.8098 15.7901 45.9921 15.7901H35.517V21.5912ZM62.9787 14C62.9787 18.4751 66.3268 21.7901 72.6582 21.7901C78.9897 21.7901 82.371 18.4751 82.371 14C82.371 9.52486 78.9897 6.20994 72.6582 6.20994C66.3268 6.20994 62.9787 9.52486 62.9787 14Z" fill="url(#paint0_linear_1_247)"/>
<path d="M110.816 7.876H106.964V6.052H113.204V4.6H106.964H105.092V13H105.86H110.816C112.7 13 114.08 12.22 114.08 10.432C114.08 8.68 112.688 7.876 110.816 7.876ZM110.672 11.548H106.964V9.304H110.672C111.68 9.304 112.208 9.724 112.208 10.42C112.208 11.128 111.68 11.548 110.672 11.548ZM122.076 4.6L117.108 11.764V4.6H115.284V13H118.164L123.132 5.836V13H124.956V4.6H122.076ZM132.141 8.668C134.037 8.5 134.961 7.792 134.961 6.652C134.961 5.068 133.101 4.456 130.809 4.456C128.361 4.456 126.597 5.296 126.345 7.048L128.121 7.144C128.325 6.244 129.477 5.908 130.809 5.908C132.201 5.908 133.089 6.304 133.089 6.976C133.089 7.612 132.309 8.032 130.701 8.032H129.357V9.424H130.773C132.573 9.424 133.425 9.868 133.425 10.552C133.425 11.26 132.489 11.692 130.797 11.692C128.997 11.692 128.037 11.212 127.869 10.336L126.081 10.396C126.333 12.292 127.941 13.144 130.797 13.144C133.437 13.144 135.297 12.436 135.297 10.78C135.297 9.412 134.013 8.812 132.141 8.668ZM144.107 4.6V7.96H138.443V4.6H136.571V13H138.443V9.496H144.107V13H145.979V4.6H144.107ZM147.807 13H156.159V11.536H149.679V9.424H154.599V8.032H149.679V6.064H155.931V4.6H147.807V13ZM164.684 10.024C164.444 10.912 163.424 11.62 161.708 11.62C159.452 11.62 158.288 10.42 158.288 8.8C158.288 7.18 159.416 5.98 161.576 5.98C163.088 5.98 164.288 6.556 164.552 7.444L166.352 7.324C166.004 5.584 164.24 4.456 161.576 4.456C158.264 4.456 156.416 6.184 156.416 8.8C156.416 11.428 158.288 13.144 161.708 13.144C164.564 13.144 166.184 12.004 166.496 10.12L164.684 10.024ZM104.576 20.8C104.576 23.416 106.52 25.144 109.952 25.144C113.384 25.144 115.34 23.416 115.34 20.8C115.34 18.184 113.384 16.456 109.952 16.456C106.52 16.456 104.576 18.184 104.576 20.8ZM106.448 20.8C106.448 19.18 107.66 17.98 109.952 17.98C112.244 17.98 113.468 19.18 113.468 20.8C113.468 22.42 112.244 23.62 109.952 23.62C107.66 23.62 106.448 22.42 106.448 20.8ZM124.191 16.6V19.96H118.527V16.6H116.655V25H118.527V21.496H124.191V25H126.063V16.6H124.191ZM129.319 16.6C129.091 20.992 129.307 23.536 127.651 23.536C127.519 23.536 127.315 23.524 127.051 23.488V25.012C127.447 25.048 127.891 25.06 128.131 25.06C130.939 25.06 130.759 22.372 131.011 18.136H135.355V25H137.227V16.6H129.319ZM147.083 25H149.003L145.019 16.6H142.151L138.167 25H140.027L140.903 23.116H146.207L147.083 25ZM141.551 21.712L143.555 17.392L145.559 21.712H141.551ZM154.787 15.928C156.575 15.928 157.283 15.244 157.331 14.164H156.119C156.059 14.596 155.759 14.944 154.787 14.944C153.803 14.944 153.491 14.596 153.443 14.164H152.231C152.279 15.244 152.987 15.928 154.787 15.928ZM156.731 16.6L151.763 23.764V16.6H149.939V25H152.819L157.787 17.836V25H159.611V16.6H156.731ZM168.992 16.6V19.96H163.328V16.6H161.456V25H163.328V21.496H168.992V25H170.864V16.6H168.992Z" fill="black"/>
<path d="M96 0V28" stroke="#E3E8F0"/>
</g>
<defs>
<linearGradient id="paint0_linear_1_247" x1="43.7711" y1="-10" x2="31.5317" y2="34.6445" gradientUnits="userSpaceOnUse">
<stop stop-color="#32C5FF"/>
<stop offset="0.512584" stop-color="#B620E0"/>
<stop offset="1" stop-color="#F7B500"/>
</linearGradient>
<clipPath id="clip0_1_247">
<rect width="172" height="28" fill="white"/>
</clipPath>
</defs>
</svg>
