<svg width="36" height="36" viewBox="0 0 36 36" fill="none" xmlns="http://www.w3.org/2000/svg">
<path fill-rule="evenodd" clip-rule="evenodd" d="M30.75 1.78766e-06C33.6495 1.78766e-06 36 2.35051 36 5.25V21.7485C36 24.648 33.6495 26.9985 30.75 26.9985H29.637C29.4299 26.9985 29.262 26.8306 29.262 26.6235V16.209C29.2584 15.3273 29.1161 14.4516 28.8405 13.614C28.8028 13.5001 28.8223 13.375 28.893 13.278C28.9641 13.1839 29.0751 13.1285 29.193 13.128H30.75C31.3713 13.128 31.875 12.6243 31.875 12.003C31.875 11.3817 31.3713 10.878 30.75 10.878H27.576C27.46 10.8796 27.3495 10.8283 27.276 10.7385C26.1539 9.36562 24.6344 8.37372 22.926 7.899L22.797 7.8645C22.6159 7.81456 22.4998 7.63839 22.5252 7.4523C22.5505 7.26621 22.7097 7.12761 22.8975 7.128H30.7485C31.3698 7.128 31.8735 6.62432 31.8735 6.003C31.8735 5.38168 31.3698 4.878 30.7485 4.878H12.0315C11.9985 4.87804 11.9657 4.8735 11.934 4.8645C11.4075 4.7205 6.684 3.4155 6.684 3.4155C6.29682 3.30832 5.88186 3.41585 5.59545 3.69757C5.30903 3.97929 5.19467 4.39242 5.29545 4.78132C5.39622 5.17022 5.69682 5.47582 6.084 5.583L22.3215 10.0605C25.0837 10.8294 26.996 13.3433 27 16.2105V27V30.75C27.0425 32.0843 26.4614 33.3624 25.428 34.2075C24.6947 34.7836 23.7865 35.0916 22.854 35.0805C22.4645 35.0795 22.0764 35.0331 21.6975 34.9425L4.959 31.011C2.11893 30.2266 0.11318 27.6942 2.20206e-06 24.75V5.25C-0.0011658 3.9772 0.462346 2.74774 1.3035 1.7925C1.35566 1.70401 1.42626 1.62778 1.5105 1.569C2.49529 0.564401 3.84323 -0.00116041 5.25 1.78766e-06H30.75ZM20.25 25.5C21.9069 25.5 23.25 24.1569 23.25 22.5C23.25 20.8431 21.9069 19.5 20.25 19.5C18.5931 19.5 17.25 20.8431 17.25 22.5C17.25 24.1569 18.5931 25.5 20.25 25.5Z" fill="#218CD5"/>
</svg>
