<svg width="36" height="37" viewBox="0 0 36 37" fill="none" xmlns="http://www.w3.org/2000/svg">
<path fill-rule="evenodd" clip-rule="evenodd" d="M30.9525 6.31849L35.5815 12.221C36.2196 13.0369 36.0766 14.2153 35.262 14.855L25.233 22.7165C24.9043 22.9754 24.4979 23.1159 24.0795 23.1155C23.5029 23.1163 22.9578 22.8526 22.6005 22.4L20.079 19.19C19.9804 19.0639 19.8127 19.0142 19.6613 19.0663C19.51 19.1185 19.4084 19.2609 19.4085 19.421V30.176C19.4085 30.3831 19.5764 30.551 19.7835 30.551H22.959C23.4408 30.551 23.8932 30.7825 24.1752 31.1732C24.4571 31.5639 24.5343 32.0662 24.3825 32.5235L23.2125 36.038C23.1104 36.3447 22.8232 36.5514 22.5 36.551H13.5C13.1746 36.554 12.8843 36.3468 12.7815 36.038L11.61 32.525C11.4595 32.0683 11.537 31.5672 11.8185 31.1774C12.0999 30.7876 12.5512 30.5563 13.032 30.5555H16.032C16.2391 30.5555 16.407 30.3876 16.407 30.1805V28.73C16.4075 28.6121 16.3523 28.5009 16.258 28.43C16.1638 28.3591 16.0417 28.3368 15.9285 28.37C15.7788 28.4133 15.6238 28.4355 15.468 28.436C15.2803 28.436 15.0937 28.4077 14.9145 28.352L7.34999 26C6.87467 25.8516 6.47782 25.5203 6.24684 25.0792C6.01585 24.6381 5.96969 24.1232 6.11849 23.648L7.34999 19.682C7.65844 18.6931 8.70988 18.1412 9.69899 18.449L15.9225 20.384C16.0361 20.4199 16.1601 20.3994 16.2561 20.3289C16.3522 20.2583 16.4088 20.1462 16.4085 20.027V13.9865C16.4079 13.8173 16.2941 13.6694 16.1307 13.6256C15.9672 13.5818 15.7947 13.6528 15.7095 13.799L14.478 15.929C14.2313 16.3609 13.8217 16.6759 13.341 16.8035C13.1814 16.8458 13.0171 16.8675 12.852 16.868C12.5238 16.8676 12.2014 16.7807 11.9175 16.616L0.581994 10.067C0.323384 9.91822 0.134569 9.67269 0.0571874 9.38454C-0.0201946 9.0964 0.020211 8.78931 0.169494 8.53099L4.29599 1.38649C4.81514 0.490983 5.96101 0.184389 6.85799 0.700994L15.8535 5.89399C15.9698 5.96007 16.1122 5.96007 16.2285 5.89399C16.345 5.8271 16.4166 5.70282 16.416 5.56849V2.80099C16.416 1.97257 17.0876 1.30099 17.916 1.30099C18.7444 1.30099 19.416 1.97257 19.416 2.80099V12.2165C19.4171 12.358 19.4975 12.487 19.6241 12.5503C19.7507 12.6136 19.9021 12.6005 20.016 12.5165L28.32 6.00199C29.1344 5.36253 30.3129 5.50422 30.9525 6.31849ZM26.5335 16.301C27.569 16.301 28.4085 15.4615 28.4085 14.426C28.4085 13.3905 27.569 12.551 26.5335 12.551C25.498 12.551 24.6585 13.3905 24.6585 14.426C24.6585 15.4615 25.498 16.301 26.5335 16.301ZM11.1585 8.42599C11.1585 9.46153 10.319 10.301 9.28349 10.301C8.24796 10.301 7.40849 9.46153 7.40849 8.42599C7.40849 7.39046 8.24796 6.55099 9.28349 6.55099C10.319 6.55099 11.1585 7.39046 11.1585 8.42599ZM10.7835 23.252C10.7835 24.0804 11.4551 24.752 12.2835 24.752C13.1119 24.752 13.7835 24.0804 13.7835 23.252C13.7835 22.4236 13.1119 21.752 12.2835 21.752C11.4551 21.752 10.7835 22.4236 10.7835 23.252Z" fill="black" fill-opacity="0.25"/>
</svg>
