<svg width="36" height="36" viewBox="0 0 36 36" fill="none" xmlns="http://www.w3.org/2000/svg">
<path fill-rule="evenodd" clip-rule="evenodd" d="M35.127 0H29.127C28.8235 6.44644e-05 28.55 0.183025 28.434 0.463499C28.3181 0.743973 28.3826 1.06667 28.5975 1.281L30 2.6895C30.0705 2.75985 30.1102 2.85538 30.1102 2.955C30.1102 3.05462 30.0705 3.15015 30 3.2205L21.045 12.174C20.3127 12.9072 20.3133 14.0952 21.0465 14.8275C21.7796 15.5598 22.9677 15.5592 23.7 14.826L32.655 5.871C32.7251 5.80056 32.8204 5.76096 32.9197 5.76096C33.0191 5.76096 33.1144 5.80056 33.1845 5.871L34.5945 7.281C34.7358 7.42194 34.9274 7.50075 35.127 7.5C35.2258 7.5004 35.3237 7.48102 35.415 7.443C35.6949 7.32659 35.8772 7.05314 35.877 6.75V0.75C35.877 0.335786 35.5412 0 35.127 0ZM13.605 9.438C13.714 9.43824 13.8174 9.48587 13.8885 9.5685C15.6 11.55 18.627 15.5805 18.627 19.248C18.627 24.3577 14.4847 28.5 9.37499 28.5C4.26525 28.5 0.122986 24.3577 0.122986 19.248C0.122986 15.5805 3.14999 11.55 4.86149 9.5685C4.93254 9.48587 5.03601 9.43824 5.14499 9.438H13.605ZM10.659 23.562C10.6584 23.3911 10.7739 23.2416 10.9395 23.199V23.205C12.142 22.9006 13.0113 21.8558 13.092 20.618C13.1727 19.3802 12.4463 18.2314 11.2935 17.7735L8.60999 16.6995C8.32624 16.594 8.16027 16.299 8.21749 16.0017C8.27471 15.7045 8.53837 15.4921 8.84099 15.4995H11.484C12.1053 15.4995 12.609 14.9958 12.609 14.3745C12.609 13.7532 12.1053 13.2495 11.484 13.2495H11.034C10.9344 13.2499 10.8388 13.2105 10.7684 13.1401C10.698 13.0697 10.6586 12.9741 10.659 12.8745V12.75C10.659 12.1287 10.1553 11.625 9.53399 11.625C8.91267 11.625 8.40899 12.1287 8.40899 12.75V12.987C8.40939 13.1584 8.29313 13.308 8.12699 13.35C6.92813 13.6575 6.063 14.7011 5.98312 15.9362C5.90324 17.1713 6.62672 18.3176 7.77599 18.777L10.4565 19.8495C10.7396 19.9548 10.9055 20.249 10.8491 20.5458C10.7927 20.8425 10.5305 21.0553 10.2285 21.0495H7.58399C6.96267 21.0495 6.45899 21.5532 6.45899 22.1745C6.45899 22.7958 6.96267 23.2995 7.58399 23.2995H8.03399C8.24109 23.2995 8.40899 23.4674 8.40899 23.6745V23.8005C8.40899 24.4218 8.91267 24.9255 9.53399 24.9255C10.1553 24.9255 10.659 24.4218 10.659 23.8005V23.562ZM15.9569 2.07338C16.3227 2.52382 16.3454 3.16223 16.0125 3.6375L13.6395 7.0275C13.5692 7.12784 13.4545 7.18771 13.332 7.188H5.43599C5.31348 7.18771 5.19877 7.12784 5.12849 7.0275L2.75549 3.6375C2.42259 3.16223 2.44527 2.52382 2.81106 2.07338C3.17685 1.62293 3.79702 1.46972 4.33049 1.698C5.35492 2.13549 6.54243 1.9063 7.33049 1.119L7.78049 0.669C8.66649 -0.215591 10.1015 -0.215591 10.9875 0.669L11.4375 1.119C12.2255 1.9063 13.413 2.13549 14.4375 1.698C14.971 1.46972 15.5911 1.62293 15.9569 2.07338ZM28.752 29.625C28.752 30.6605 27.9125 31.5 26.877 31.5C25.8415 31.5 25.002 30.6605 25.002 29.625C25.002 28.5895 25.8415 27.75 26.877 27.75C27.9125 27.75 28.752 28.5895 28.752 29.625ZM32.877 23.25H20.877C19.2201 23.25 17.877 24.5931 17.877 26.25V33C17.877 34.6569 19.2201 36 20.877 36H32.877C34.5338 36 35.877 34.6569 35.877 33V26.25C35.877 24.5931 34.5338 23.25 32.877 23.25ZM32.877 32.625C32.877 32.8321 32.7091 33 32.502 33H21.252C21.0449 33 20.877 32.8321 20.877 32.625V26.625C20.877 26.4179 21.0449 26.25 21.252 26.25H32.502C32.7091 26.25 32.877 26.4179 32.877 26.625V32.625Z" fill="#00B273"/>
</svg>
